PathFileType	4	(X/Y/Z)	T00_Trial_0-99.trc
DataRate	CameraRate	NumFrames	NumMarkers	Units	OrigDataRate	OrigDataStartFrame	OrigNumFrames
60	60	7	22	m	60	74	99
Frame#	Time	Hip			RHip			RKnee			RAnkle			RBigToe			RSmallToe			RHeel			LHip			LKnee			LAnkle			LBigToe			LSmallToe			LHeel			Neck			Head			Nose			RShoulder			RElbow			RWrist			LShoulder			LElbow			LWrist		
		X1	Y1	Z1	X2	Y2	Z2	X3	Y3	Z3	X4	Y4	Z4	X5	Y5	Z5	X6	Y6	Z6	X7	Y7	Z7	X8	Y8	Z8	X9	Y9	Z9	X10	Y10	Z10	X11	Y11	Z11	X12	Y12	Z12	X13	Y13	Z13	X14	Y14	Z14	X15	Y15	Z15	X16	Y16	Z16	X17	Y17	Z17	X18	Y18	Z18	X19	Y19	Z19	X20	Y20	Z20	X21	Y21	Z21	X22	Y22	Z22
74	1.2333333333333334	-0.13672855828108518	0.9646442556398666	-1.0470400645533782	-0.07053637426433776	0.9347695164448194	-0.7802800800000438	-0.15383844168243035	0.5150198821885342	-0.7664405752878395	-0.09833294472962734	0.13683818318937085	-0.7198754239031222	-0.07114081885803503	0.07583187547408281	-0.5562463450708568	-0.12092927768403092	0.055606511810388726	-0.5500689376994701	-0.09761708845336682	0.08452269549364971	-0.7371169027973979	-0.01573039594274876	0.8973763968538757	-0.9732016431089948	-0.02558140166430627	0.47711536815031963	-0.9540235399335489	-0.032820679738132325	0.1537157936474558	-1.1489860779164465	0.018208467615523066	0.06962790924350608	-0.9960634501124742	0.046388554409452845	0.05595523040072283	-1.0441605055134595	-0.03274572274035018	0.11463583505273911	-1.1978909880038389	0.12145318147795277	1.4069947851620377	-0.8051827757578877	0.0716308299674048	1.6941985096723564	-1.1613362201070678	0.023482133754419203	1.5266114702982818	-1.109965500868608	-0.08493776631667391	1.4387116965371483	-0.8285998216244699	-0.34139795639135784	1.3908742528128575	-0.8066898162854788	-0.27952323170409066	1.4866487917748177	-0.5751334263004579	0.23865610851482366	1.2952074582763229	-0.9110894830243486	0.36239516764805096	1.0322858389796241	-0.9587476794764096	0.44087440546556966	0.7911960934207973	-0.8467251971217785
75	1.25	-0.13672855828108518	0.9646442556398666	-1.0470400645533782	-0.07053637426433776	0.9347695164448194	-0.7802800800000438	-0.14065586340695185	0.5071942097140623	-0.7620653778120511	-0.0771665806561676	0.13015747990903617	-0.7254944900508793	-0.07122841921181003	0.06435830290676088	-0.5352883555201803	-0.1161460323400671	0.04154095794670433	-0.5402820400554319	-0.0692889449987903	0.08159411455301033	-0.7568471516227719	-0.007454979432911037	0.9008825053169573	-0.9636931757090784	-0.019444662087994075	0.4786921108174582	-0.9508855738791063	-0.03381689558697227	0.15744879259764	-1.1518089307115493	0.011238021907674237	0.06242712173292333	-0.9989297252837708	0.03814069137484258	0.06191237999942829	-1.0504089928502571	-0.03483941722981764	0.1210240970204785	-1.200666897523617	0.11126711561038445	1.4225612146725717	-0.7895119344804575	0.0716308299674048	1.6941985096723564	-1.1613362201070678	0.023482133754419203	1.5266114702982818	-1.109965500868608	-0.09074909939633972	1.4378280007770299	-0.8169436713997464	-0.35483004358881653	1.3786499193776964	-0.7936758063280847	-0.29488675755978677	1.4721065378910048	-0.5658641176936351	0.22686081260717528	1.309657338077871	-0.900341154577735	0.3628684272752384	1.0490382091497836	-0.9568244514874508	0.4448199045303439	0.8111788209019027	-0.8505872027673758
76	1.2666666666666666	-0.13672855828108518	0.9646442556398666	-1.0470400645533782	-0.07053637426433776	0.9347695164448194	-0.7802800800000438	-0.12747328513147335	0.4993685372395903	-0.7576901803362627	-0.058361545363281114	0.132845857374984	-0.7413306719887023	-0.04212410157441867	0.06026902429544459	-0.5480850830748113	-0.08968768966681015	0.04079823676065279	-0.5557790625272707	-0.04884507082016054	0.09253980238392527	-0.7773191365065867	0.000820437076926683	0.9043886137800389	-0.954184708309162	-0.01707493180054159	0.4784956921747673	-0.9503102943010904	-0.03721720219122333	0.15659754715786836	-1.1491331278052392	0.009682683507054564	0.06318653131791167	-1.008024787991144	0.03813321344724207	0.06255237498929239	-1.0537743719347339	-0.040428462861469165	0.12361844225587859	-1.2006778868897812	0.09495998030987261	1.4262182827727816	-0.7826112418378633	0.0716308299674048	1.6941985096723564	-1.1613362201070678	0.023482133754419203	1.5266114702982818	-1.109965500868608	-0.10150013866248472	1.4379011520961535	-0.8146739192489538	-0.3602040105037913	1.371618899212208	-0.7949194207186742	-0.31025028341548283	1.4575642840071916	-0.5565948090868122	0.22065088670549762	1.317607031274481	-0.893350613277338	0.3663577024017278	1.0654447517465349	-0.9558577329900141	0.4521573462923853	0.8412964194634689	-0.8518284305458851
77	1.2833333333333334	-0.13672855828108518	0.9646442556398666	-1.0470400645533782	-0.07053637426433776	0.9347695164448194	-0.7802800800000438	-0.11957509286494533	0.49996028489670635	-0.7489251617781458	-0.04797308288968575	0.12471322872500291	-0.7499834209177539	-0.05172113088550641	0.05004819351936064	-0.5533646924628975	-0.09510715439445523	0.021065607915533514	-0.565484398310734	-0.03993254128768261	0.08858113436139407	-0.7854298029653158	0.009863105452029605	0.8989389197219894	-0.9501991552586011	-0.012615573008973173	0.481366289671341	-0.9415987166044851	-0.03458113408963808	0.1612146188315891	-1.153038191710003	0.00736359969925994	0.050984601256576834	-0.9972495303208478	0.03122664069350342	0.05715702046195861	-1.0477446688768435	-0.04322245602906022	0.12012575602217074	-1.1988161873884384	0.0901993257960074	1.4312161712299092	-0.7750601782531852	0.0716308299674048	1.6941985096723564	-1.1613362201070678	0.023482133754419203	1.5266114702982818	-1.109965500868608	-0.11285920088130359	1.4403474863734007	-0.8079901869715728	-0.369028298534657	1.356338276329622	-0.7908992692477658	-0.33149705121393924	1.438402393774958	-0.5301280314835847	0.21410968884928547	1.3299201093324504	-0.8843152840290341	0.3638041234827321	1.0850664745422027	-0.9524801758678425	0.4606265709290219	0.8585318524407343	-0.8502347289922505
78	1.3	-0.13672855828108518	0.9646442556398666	-1.0470400645533782	-0.07053637426433776	0.9347695164448194	-0.7802800800000438	-0.11608065147594837	0.4999181537730519	-0.7432227496213185	-0.047098828838084056	0.12225405416310509	-0.7465393274967755	-0.059462344436821975	0.042642273460715696	-0.5450724894605631	-0.09936579512424529	0.03149603150923022	-0.5659971829590379	-0.03790403250527103	0.08298877765079965	-0.7819058928222697	0.018122085081937096	0.8940215711317105	-0.9356630766014635	-0.008124639961658006	0.48138689259082945	-0.9377305073264725	-0.03313453713928747	0.15796135419601195	-1.1475159740709386	-0.001354970732376098	0.05708348246029447	-0.9951671012924778	0.023548414761879306	0.060482329506188766	-1.0452494188940802	-0.035405260414177346	0.12449828125165296	-1.196662778979511	0.07689254381988297	1.4387647343121308	-0.7633401100226261	0.0716308299674048	1.6941985096723564	-1.1613362201070678	0.023482133754419203	1.5266114702982818	-1.109965500868608	-0.12821227941911142	1.4331494256461907	-0.7840064128877289	-0.38946392273130637	1.3377709436330953	-0.7761350757894306	-0.34604339555217134	1.422714802894318	-0.5230299663378535	0.20373688875437337	1.3453682641745766	-0.8759460711987208	0.36862846429805163	1.1040201804950245	-0.9419477001306826	0.48105197851173387	0.8897431055224081	-0.8462146167067744
79	1.3166666666666667	-0.13672855828108518	0.9646442556398666	-1.0470400645533782	-0.07053637426433776	0.9347695164448194	-0.7802800800000438	-0.11258621008695141	0.49987602264939734	-0.7375203374644912	-0.045435573809237274	0.12657687420841454	-0.7492296991864249	-0.06521233401244458	0.036812403469268645	-0.5440952160159789	-0.1054615582990493	0.026087953293713384	-0.5675652819196485	-0.03916560745332156	0.08230360692949712	-0.78243763257336	0.03055418719272342	0.9119292453099539	-0.9364367262283879	-0.0018072427921743933	0.48243480281552625	-0.9296878304702422	-0.02982437624707484	0.16190712346609556	-1.1438043081330331	-0.002443860560650723	0.05043224173369635	-0.9813147883937529	0.023947906822252226	0.05798041859342076	-1.0425862063833886	-0.03884633452006517	0.1285067592076752	-1.1989521629480493	0.05997655225345366	1.4452321509280053	-0.7457227484492194	0.0716308299674048	1.6941985096723564	-1.1613362201070678	0.023482133754419203	1.5266114702982818	-1.109965500868608	-0.14183693297154676	1.431522602190495	-0.7705493757873995	-0.3962812162193299	1.3267856962143814	-0.7807418765268838	-0.3709834680639314	1.4081066198713383	-0.5224697824899132	0.19295417209162552	1.3530538103567538	-0.8721102919669754	0.3725408627353687	1.1284593903464926	-0.9320392615845513	0.496947414605461	0.9266805018716111	-0.8452957573936134
80	1.3333333333333333	-0.049477077109420675	0.9257861667345325	-0.8955133012230001	-0.07053637426433776	0.9347695164448194	-0.7802800800000438	-0.10909176869795445	0.49983389152574287	-0.731817925307664	-0.045157473232632785	0.12395927695389006	-0.7418897266540716	-0.06300033046205837	0.03768331105114258	-0.5421708262071069	-0.10163979471750666	0.02386137108958548	-0.5583944374953298	-0.03963418274680641	0.07810179593630001	-0.780548472079122	0.033221342143828464	0.9118627808198102	-0.9272777498074735	0.011503827086345184	0.4747944449077388	-0.9168669121798956	-0.026810232088053196	0.17470134674670038	-1.1483087795435025	0.010282794240567432	0.057858347328951946	-1.0011307377684249	0.033088909795428084	0.07190842127640727	-1.0657385224248062	-0.036595302675178444	0.14281832664752822	-1.2027751179495363	0.0446676135223871	1.4527300266157679	-0.7355432080391627	0.0716308299674048	1.6941985096723564	-1.1613362201070678	0.023482133754419203	1.5266114702982818	-1.109965500868608	-0.15050807830870647	1.423824635112123	-0.7352162030281907	-0.40639933153233776	1.30884908891524	-0.7740385634466636	-0.3709834680639314	1.4081066198713383	-0.5224697824899132	0.18304146916227643	1.3693515638312732	-0.8563355035976635	0.37414485624375815	1.1609876100065166	-0.92374987545473	0.5130857892307698	0.9702832519665332	-0.8468905806643073
